# xmcd
#
# Track frame offsets:
#	182
#	12510
#	25822
#	38397
#	53915
#	73477
#	84835
#	99527
#	121510
#	142282
#	162835
#	176817
#
# Disc length: 2565 seconds
# Revision: 2
# Processed by: cddbd v1.5.2PL0 Copyright (c) Steve Scherf et al.
# Submitted via: dBpowerAMP V12.0
#
DISCID=9b0a030c
DTITLE=Various Artist - New Country: November 1995
DYEAR=1995
DGENRE=Country
TTITLE0=Toni Price - Hey
TTITLE1=Daryle Singletary - I Let Her Lie
TTITLE2=Shanley Del - I Don't Wanna Talk About Love
TTITLE3=Jeff Copley - Evergreen
TTITLE4=Wayne Hancock - Cold Lonesome Wind
TTITLE5=The Derailers - Just One More Time
TTITLE6=Kieran Kane - Je Suis Tres Contendre
TTITLE7=Emmylou Harris - Goin' Back to Harlan
TTITLE8=Toby Keith - Santa I'm Right Here
TTITLE9=Anthony Crawford - The Noise Around Us
TTITLE10=Salamander Crossing - Burning Bridges
TTITLE11=Christine Albert - New Mexico
EXTD=
EXTT0=
EXTT1=
EXTT2=
EXTT3=
EXTT4=
EXTT5=
EXTT6=
EXTT7=
EXTT8=
EXTT9=
EXTT10=
EXTT11=
PLAYORDER=
